# xmcd
# 
# Track frame offsets:
#     180
#     17084
#     34180
#     50746
#     73071
#     85617
#     100954
#     113214
#     127239
#     150728
# 
# Disc length: 2475
# 
# Revision: 8
# Processed by: cddbd v1.5.2PL0 Copyright (c) Steve Scherf et al.
# Submitted via: fre:ac v1.0.17
# 
DISCID=8709a90a
DTITLE=Various Artist - New Country - Volume 3 - Number 11
DYEAR=1996
DGENRE=Country
TTITLE0=Bill Monroe and His Bluegrass Boys - Midnight On The Stormy Deep
TTITLE1=The Seldom Scene - The Shape I'm In
TTITLE2=Bad Company - Oh Atlanta
TTITLE3=Gary Chapman - One Of Two
TTITLE4=Lucy Kaplansky - Love Is The Ride
TTITLE5=High Noon - Call Of The Honky-Tonk
TTITLE6=Libbi Bosworth - Don't Call Me Crazy
TTITLE7=The Picketts - Good Good Wife
TTITLE8=Peter Rowan - Bluegrass Boy
TTITLE9=Dave Alvin and The Guilty Men - Long White Cadillac
EXTD=
EXTT0=
EXTT1=
EXTT2=
EXTT3=
EXTT4=
EXTT5=
EXTT6=
EXTT7=
EXTT8=
EXTT9=
PLAYORDER=
